<svg xmlns="http://www.w3.org/2000/svg" viewBox="0 0 500 500"><g id="freepik--background-complete--inject-200"><rect x="416.78" y="398.49" width="33.12" height="0.25" style="fill:#ebebeb"></rect><rect x="322.53" y="401.21" width="8.69" height="0.25" style="fill:#ebebeb"></rect><rect x="396.59" y="389.21" width="19.19" height="0.25" style="fill:#ebebeb"></rect><rect x="52.46" y="390.89" width="43.19" height="0.25" style="fill:#ebebeb"></rect><rect x="104.56" y="390.89" width="6.33" height="0.25" style="fill:#ebebeb"></rect><rect x="131.47" y="395.11" width="93.68" height="0.25" style="fill:#ebebeb"></rect><path d="M237,337.8H43.92a5.71,5.71,0,0,1-5.71-5.71V60.66A5.71,5.71,0,0,1,43.92,55H237a5.71,5.71,0,0,1,5.71,5.71V332.09A5.71,5.71,0,0,1,237,337.8ZM43.92,55.2a5.47,5.47,0,0,0-5.46,5.46V332.09a5.47,5.47,0,0,0,5.46,5.46H237a5.47,5.47,0,0,0,5.46-5.46V60.66A5.47,5.47,0,0,0,237,55.2Z" style="fill:#ebebeb"></path><path d="M453.31,337.8H260.21a5.72,5.72,0,0,1-5.71-5.71V60.66A5.72,5.72,0,0,1,260.21,55h193.1A5.71,5.71,0,0,1,459,60.66V332.09A5.71,5.71,0,0,1,453.31,337.8ZM260.21,55.2a5.47,5.47,0,0,0-5.46,5.46V332.09a5.47,5.47,0,0,0,5.46,5.46h193.1a5.47,5.47,0,0,0,5.46-5.46V60.66a5.47,5.47,0,0,0-5.46-5.46Z" style="fill:#ebebeb"></path><rect y="382.4" width="500" height="0.25" style="fill:#ebebeb"></rect><polygon points="81.4 381.65 63.22 381.65 61.66 234.96 71.53 227.16 81.4 234.96 81.4 381.65" style="fill:#e6e6e6"></polygon><polygon points="105.27 381.65 87.09 381.65 85.53 234.96 95.4 227.16 105.27 234.96 105.27 381.65" style="fill:#ebebeb"></polygon><polygon points="133.53 381.65 151.71 381.65 153.27 234.96 143.4 227.16 133.53 234.96 133.53 381.65" style="fill:#e6e6e6"></polygon><polygon points="109.66 381.65 127.84 381.65 129.4 234.96 119.53 227.16 109.66 234.96 109.66 381.65" style="fill:#ebebeb"></polygon><polygon points="176.8 381.65 158.62 381.65 157.06 234.96 166.93 227.16 176.8 234.96 176.8 381.65" style="fill:#e0e0e0"></polygon><polygon points="181.19 381.65 199.37 381.65 200.93 234.96 191.06 227.16 181.19 234.96 181.19 381.65" style="fill:#e6e6e6"></polygon><polygon points="224.67 381.65 206.49 381.65 204.93 234.96 214.8 227.16 224.67 234.96 224.67 381.65" style="fill:#e0e0e0"></polygon><polygon points="248.54 381.65 230.36 381.65 228.8 234.96 238.67 227.16 248.54 234.96 248.54 381.65" style="fill:#e6e6e6"></polygon><polygon points="276.8 381.65 294.98 381.65 296.54 234.96 286.67 227.16 276.8 234.96 276.8 381.65" style="fill:#e0e0e0"></polygon><polygon points="252.93 381.65 271.11 381.65 272.67 234.96 262.8 227.16 252.93 234.96 252.93 381.65" style="fill:#f0f0f0"></polygon><polygon points="320.08 381.65 301.9 381.65 300.34 234.96 310.21 227.16 320.08 234.96 320.08 381.65" style="fill:#f0f0f0"></polygon><polygon points="324.47 381.65 342.65 381.65 344.21 234.96 334.34 227.16 324.47 234.96 324.47 381.65" style="fill:#f0f0f0"></polygon><polygon points="346.55 381.65 364.73 381.65 366.28 234.96 356.42 227.16 346.55 234.96 346.55 381.65" style="fill:#e0e0e0"></polygon><polygon points="389.82 381.65 371.64 381.65 370.08 234.96 379.95 227.16 389.82 234.96 389.82 381.65" style="fill:#e0e0e0"></polygon><polygon points="394.21 381.65 412.39 381.65 413.95 234.96 404.08 227.16 394.21 234.96 394.21 381.65" style="fill:#f0f0f0"></polygon><polygon points="416.69 381.65 434.88 381.65 436.43 234.96 426.56 227.16 416.69 234.96 416.69 381.65" style="fill:#e6e6e6"></polygon><polygon points="440.11 270.69 58.77 271.69 58.77 253.36 440.11 251.36 440.11 270.69" style="fill:#f0f0f0"></polygon><polygon points="58.77 368.69 440.11 369.69 440.11 351.36 58.77 349.36 58.77 368.69" style="fill:#e6e6e6"></polygon><path d="M419.74,110.62a6.22,6.22,0,0,0-3.67,1.2,9.36,9.36,0,0,0-13.17-11.54,9.36,9.36,0,0,0-18.12,3.28,10.21,10.21,0,0,0,.09,1.25,9.55,9.55,0,0,0-2.46-.34,9.37,9.37,0,0,0,0,18.74h37.33a6.3,6.3,0,0,0,0-12.59Z" style="fill:#f0f0f0"></path><path d="M371.52,95.56a4.41,4.41,0,0,0-2.6.84,6.62,6.62,0,0,0-9.3-8.16,6.62,6.62,0,0,0-12.81,2.33,6.4,6.4,0,0,0,.07.88,6.7,6.7,0,0,0-1.74-.24,6.62,6.62,0,0,0,0,13.24h26.38a4.45,4.45,0,0,0,0-8.89Z" style="fill:#f0f0f0"></path><path d="M134.38,115.45a8.08,8.08,0,0,0-4.76,1.54,11.91,11.91,0,0,0,.78-4.24,12.12,12.12,0,0,0-17.81-10.69,12.1,12.1,0,0,0-23.44,4.25,12.35,12.35,0,0,0,.12,1.62,12,12,0,0,0-3.19-.44,12.12,12.12,0,0,0,0,24.23h48.3a8.14,8.14,0,0,0,0-16.27Z" style="fill:#f0f0f0"></path><path d="M293.05,92.71a8.09,8.09,0,0,0-4.76,1.55,12,12,0,0,0,.78-4.24A12.12,12.12,0,0,0,277,77.91a12,12,0,0,0-5.68,1.42,12.09,12.09,0,0,0-23.33,5.86,12.4,12.4,0,0,0-3.19-.43,12.12,12.12,0,0,0,0,24.23h48.3a8.14,8.14,0,0,0,0-16.28Z" style="fill:#f0f0f0"></path></g><g id="freepik--Shadow--inject-200"><ellipse id="freepik--path--inject-200" cx="245.18" cy="412.39" rx="193.89" ry="11.32" style="fill:#f5f5f5"></ellipse></g><g id="freepik--Coolbox--inject-200"><path d="M82.2,322.93l3.89,52.23a8.37,8.37,0,0,0,8.36,7.76H169.9a8.37,8.37,0,0,0,8.36-7.76l3.89-52.23a8.38,8.38,0,0,0-8.36-9H90.56A8.38,8.38,0,0,0,82.2,322.93Z" style="fill:#F17260"></path><path d="M173.79,313.93H90.56a8.38,8.38,0,0,0-8.36,9l.6,8.06h98.75l.6-8.06A8.38,8.38,0,0,0,173.79,313.93Z" style="fill:#F17260"></path><polygon points="82.67 329.22 82.8 330.99 181.55 330.99 181.69 329.22 82.67 329.22" style="fill:#263238"></polygon><path d="M109.19,329.13h-11a2,2,0,0,1-2-2h0a2,2,0,0,1,2-2h11a2,2,0,0,1,2,2h0A2,2,0,0,1,109.19,329.13Z" style="fill:#263238"></path><path d="M109.19,329.13h-11a2,2,0,0,1-2-2h0a2,2,0,0,1,2-2h11a2,2,0,0,1,2,2h0A2,2,0,0,1,109.19,329.13Z" style="fill:#fff;opacity:0.5"></path><rect x="96.24" y="331.21" width="14.95" height="7.11" rx="2.48" style="fill:#263238"></rect><rect x="96.24" y="331.21" width="14.95" height="7.11" rx="2.48" style="fill:#fff;opacity:0.5"></rect><path d="M107.91,336.24H99.53a2.32,2.32,0,0,1-2.33-2.32V328a.88.88,0,0,1,.89-.88h0A.88.88,0,0,1,99,328v4.12a2.32,2.32,0,0,0,2.32,2.32h4.83a2.32,2.32,0,0,0,2.32-2.32V328a.88.88,0,0,1,.89-.88h0a.88.88,0,0,1,.89.88v5.9A2.32,2.32,0,0,1,107.91,336.24Z" style="fill:#263238"></path><g style="opacity:0.2"><path d="M107.91,336.24H99.53a2.32,2.32,0,0,1-2.33-2.32V328a.88.88,0,0,1,.89-.88h0A.88.88,0,0,1,99,328v4.12a2.32,2.32,0,0,0,2.32,2.32h4.83a2.32,2.32,0,0,0,2.32-2.32V328a.88.88,0,0,1,.89-.88h0a.88.88,0,0,1,.89.88v5.9A2.32,2.32,0,0,1,107.91,336.24Z" style="fill:#fff"></path></g><path d="M104.62,341.45h-2a2,2,0,0,1-2-1.79l-.51-5.21a2,2,0,0,1,2-2.17h3a2,2,0,0,1,2,2.17l-.51,5.21A2,2,0,0,1,104.62,341.45Z" style="fill:#263238"></path><path d="M104.62,341.45h-2a2,2,0,0,1-2-1.79l-.51-5.21a2,2,0,0,1,2-2.17h3a2,2,0,0,1,2,2.17l-.51,5.21A2,2,0,0,1,104.62,341.45Z" style="fill:#fff;opacity:0.6000000000000001"></path><path d="M166.11,329.13h-11a2,2,0,0,1-2-2h0a2,2,0,0,1,2-2h11a2,2,0,0,1,2,2h0A2,2,0,0,1,166.11,329.13Z" style="fill:#263238"></path><path d="M166.11,329.13h-11a2,2,0,0,1-2-2h0a2,2,0,0,1,2-2h11a2,2,0,0,1,2,2h0A2,2,0,0,1,166.11,329.13Z" style="fill:#fff;opacity:0.5"></path><rect x="153.16" y="331.21" width="14.95" height="7.11" rx="2.48" style="fill:#263238"></rect><rect x="153.16" y="331.21" width="14.95" height="7.11" rx="2.48" style="fill:#fff;opacity:0.5"></rect><path d="M164.83,336.24h-8.39a2.32,2.32,0,0,1-2.32-2.32V328a.88.88,0,0,1,.89-.88h0a.88.88,0,0,1,.89.88v4.12a2.32,2.32,0,0,0,2.32,2.32h4.83a2.32,2.32,0,0,0,2.32-2.32V328a.88.88,0,0,1,.89-.88h0a.88.88,0,0,1,.89.88v5.9A2.32,2.32,0,0,1,164.83,336.24Z" style="fill:#263238"></path><g style="opacity:0.2"><path d="M164.83,336.24h-8.39a2.32,2.32,0,0,1-2.32-2.32V328a.88.88,0,0,1,.89-.88h0a.88.88,0,0,1,.89.88v4.12a2.32,2.32,0,0,0,2.32,2.32h4.83a2.32,2.32,0,0,0,2.32-2.32V328a.88.88,0,0,1,.89-.88h0a.88.88,0,0,1,.89.88v5.9A2.32,2.32,0,0,1,164.83,336.24Z" style="fill:#fff"></path></g><path d="M161.54,341.45h-2a2,2,0,0,1-2-1.79l-.51-5.21a2,2,0,0,1,2-2.17h3a2,2,0,0,1,2,2.17l-.5,5.21A2,2,0,0,1,161.54,341.45Z" style="fill:#263238"></path><path d="M161.54,341.45h-2a2,2,0,0,1-2-1.79l-.51-5.21a2,2,0,0,1,2-2.17h3a2,2,0,0,1,2,2.17l-.5,5.21A2,2,0,0,1,161.54,341.45Z" style="fill:#fff;opacity:0.6000000000000001"></path><g style="opacity:0.4"><path d="M173.79,313.93H90.56a8.37,8.37,0,0,0-8.36,9l.47,6.29L82.8,331l3.29,44.17a8.37,8.37,0,0,0,8.36,7.76H169.9a8.37,8.37,0,0,0,8.36-7.76L181.55,331l.13-1.77.47-6.29A8.38,8.38,0,0,0,173.79,313.93Zm-6.64,17.81a2.47,2.47,0,0,0-1.53-.53h-.25V328a.89.89,0,0,1,1.78,0Z" style="fill:#fff"></path><path d="M167.15,328v3.72a2.47,2.47,0,0,0-1.53-.53h-.25V328a.89.89,0,0,1,1.78,0Z" style="fill:#fff"></path><path d="M167.15,328v3h-1.78v-3a.89.89,0,0,1,1.78,0Z" style="fill:#fff"></path><polygon points="82.67 329.22 82.8 330.99 82.66 329.22 82.67 329.22" style="fill:#fff"></polygon><rect x="165.37" y="329.22" width="1.78" height="1.77" style="fill:#fff"></rect><path d="M167.15,328v.82a2,2,0,0,1-1,.29h-.74V328a.89.89,0,0,1,1.78,0Z" style="fill:#fff"></path><path d="M167.15,328v.82a2,2,0,0,1-1,.29h-.74V328a.89.89,0,0,1,1.78,0Z" style="fill:#fff;opacity:0.5"></path><path d="M167.15,328v3.72a2.47,2.47,0,0,0-1.53-.53h-.25V328a.89.89,0,0,1,1.78,0Z" style="fill:#fff"></path><g style="opacity:0.2"><path d="M167.15,328v3.72a2.47,2.47,0,0,0-1.53-.53h-.25V328a.89.89,0,0,1,1.78,0Z" style="fill:#fff"></path></g></g></g><g id="freepik--Lights--inject-200"><path d="M249.91,72.52C129.5,72.52,39.73,61.57,38.36,61.4l.19-1.48c2.09.26,211.36,25.75,420.37-1.42l.2,1.49C386.52,69.42,313.88,72.52,249.91,72.52Z" style="fill:#263238"></path><g style="opacity:0.5"><path d="M249.91,72.52C129.5,72.52,39.73,61.57,38.36,61.4l.19-1.48c2.09.26,211.36,25.75,420.37-1.42l.2,1.49C386.52,69.42,313.88,72.52,249.91,72.52Z" style="fill:#fff"></path></g><path d="M56.82,75.7A6.28,6.28,0,1,0,69.3,77.17c.3-2.49-1.49-4.42-2.51-6.55a8.93,8.93,0,0,1,0-3l-5.29-.62a9,9,0,0,1-.69,2.86C59.31,71.74,57.12,73.2,56.82,75.7Z" style="fill:#F17260"></path><path d="M56.82,75.7A6.28,6.28,0,1,0,69.3,77.17c.3-2.49-1.49-4.42-2.51-6.55a8.93,8.93,0,0,1,0-3l-5.29-.62a9,9,0,0,1-.69,2.86C59.31,71.74,57.12,73.2,56.82,75.7Z" style="fill:#fff;opacity:0.6000000000000001"></path><path d="M63.23,65.36l2.26.26a1.53,1.53,0,0,1,1.33,1.7h0l-5.29-.63h0A1.53,1.53,0,0,1,63.23,65.36Z" style="fill:#F17260"></path><path d="M64.54,63.9h0a1.25,1.25,0,0,1,1.1,1.38h0L63.16,65h0A1.25,1.25,0,0,1,64.54,63.9Z" style="fill:#F17260"></path><path d="M120.34,81.28a6.28,6.28,0,0,0,12.48,1.47c.29-2.5-1.5-4.43-2.52-6.55a8.87,8.87,0,0,1,0-3l-5.3-.62a8.73,8.73,0,0,1-.69,2.86C122.82,77.32,120.63,78.78,120.34,81.28Z" style="fill:#F17260"></path><path d="M120.34,81.28a6.28,6.28,0,0,0,12.48,1.47c.29-2.5-1.5-4.43-2.52-6.55a8.87,8.87,0,0,1,0-3l-5.3-.62a8.73,8.73,0,0,1-.69,2.86C122.82,77.32,120.63,78.78,120.34,81.28Z" style="fill:#fff;opacity:0.6000000000000001"></path><path d="M126.74,70.93l2.26.27a1.53,1.53,0,0,1,1.34,1.7h0l-5.3-.63h0A1.53,1.53,0,0,1,126.74,70.93Z" style="fill:#F17260"></path><path d="M128.06,69.48h0a1.24,1.24,0,0,1,1.09,1.38h0l-2.47-.29h0A1.23,1.23,0,0,1,128.06,69.48Z" style="fill:#F17260"></path><path d="M194.3,84.49a6.28,6.28,0,1,0,12.56-.36c-.07-2.52-2.12-4.16-3.45-6.12A8.88,8.88,0,0,1,203,75.1l-5.33.15a9.08,9.08,0,0,1-.26,2.94C196.18,80.22,194.23,82,194.3,84.49Z" style="fill:#F17260"></path><path d="M194.3,84.49a6.28,6.28,0,1,0,12.56-.36c-.07-2.52-2.12-4.16-3.45-6.12A8.88,8.88,0,0,1,203,75.1l-5.33.15a9.08,9.08,0,0,1-.26,2.94C196.18,80.22,194.23,82,194.3,84.49Z" style="fill:#fff;opacity:0.6000000000000001"></path><path d="M199.12,73.33l2.28-.07A1.52,1.52,0,0,1,203,74.74h0l-5.33.16h0A1.52,1.52,0,0,1,199.12,73.33Z" style="fill:#F17260"></path><path d="M200.22,71.69h0a1.25,1.25,0,0,1,1.28,1.21h0L199,73h0A1.24,1.24,0,0,1,200.22,71.69Z" style="fill:#F17260"></path><path d="M273.18,85.07a6.28,6.28,0,0,0,12.56-.37c-.07-2.52-2.12-4.16-3.44-6.12a9,9,0,0,1-.44-2.91l-5.33.16a8.74,8.74,0,0,1-.26,2.93C275.06,80.79,273.11,82.55,273.18,85.07Z" style="fill:#F17260"></path><path d="M273.18,85.07a6.28,6.28,0,0,0,12.56-.37c-.07-2.52-2.12-4.16-3.44-6.12a9,9,0,0,1-.44-2.91l-5.33.16a8.74,8.74,0,0,1-.26,2.93C275.06,80.79,273.11,82.55,273.18,85.07Z" style="fill:#fff;opacity:0.6000000000000001"></path><path d="M278,73.9l2.27-.07a1.53,1.53,0,0,1,1.57,1.48h0l-5.33.16h0A1.53,1.53,0,0,1,278,73.9Z" style="fill:#F17260"></path><path d="M279.1,72.26h0a1.25,1.25,0,0,1,1.28,1.21h0l-2.49.07h0A1.25,1.25,0,0,1,279.1,72.26Z" style="fill:#F17260"></path><path d="M352.1,83.43A6.28,6.28,0,1,0,364.57,82c-.29-2.49-2.48-4-4-5.78a8.73,8.73,0,0,1-.69-2.86l-5.3.62a8.87,8.87,0,0,1,0,2.95C353.59,79,351.8,80.93,352.1,83.43Z" style="fill:#F17260"></path><path d="M352.1,83.43A6.28,6.28,0,1,0,364.57,82c-.29-2.49-2.48-4-4-5.78a8.73,8.73,0,0,1-.69-2.86l-5.3.62a8.87,8.87,0,0,1,0,2.95C353.59,79,351.8,80.93,352.1,83.43Z" style="fill:#fff;opacity:0.6000000000000001"></path><path d="M355.91,71.88l2.26-.27A1.53,1.53,0,0,1,359.86,73h0l-5.29.63h0A1.53,1.53,0,0,1,355.91,71.88Z" style="fill:#F17260"></path><path d="M356.85,70.16h0a1.23,1.23,0,0,1,1.38,1.09h0l-2.47.29h0A1.25,1.25,0,0,1,356.85,70.16Z" style="fill:#F17260"></path><path d="M423,77.61a6.29,6.29,0,1,0,12.34-2.42c-.49-2.47-2.78-3.75-4.41-5.47a9,9,0,0,1-.9-2.8l-5.23,1a9.14,9.14,0,0,1,.22,2.94C424.14,73.08,422.5,75.14,423,77.61Z" style="fill:#F17260"></path><path d="M423,77.61a6.29,6.29,0,1,0,12.34-2.42c-.49-2.47-2.78-3.75-4.41-5.47a9,9,0,0,1-.9-2.8l-5.23,1a9.14,9.14,0,0,1,.22,2.94C424.14,73.08,422.5,75.14,423,77.61Z" style="fill:#fff;opacity:0.6000000000000001"></path><path d="M425.91,65.8l2.24-.44a1.53,1.53,0,0,1,1.79,1.21h0l-5.23,1h0A1.53,1.53,0,0,1,425.91,65.8Z" style="fill:#F17260"></path><path d="M426.72,64h0a1.24,1.24,0,0,1,1.46,1h0l-2.44.48h0A1.25,1.25,0,0,1,426.72,64Z" style="fill:#F17260"></path></g><g id="freepik--Table--inject-200"><path d="M308.54,232.35l-.37-.61h-7.36l-.37.61a1.73,1.73,0,0,0-.23.86V249a1.73,1.73,0,0,0,.23.86l.37.61h7.36l.37-.61a1.74,1.74,0,0,0,.24-.86V233.21A1.74,1.74,0,0,0,308.54,232.35Z" style="fill:#263238"></path><path d="M308.87,231.93h-8.75a.49.49,0,0,1-.49-.49h0a.49.49,0,0,1,.49-.49h8.75a.49.49,0,0,1,.49.49h0A.49.49,0,0,1,308.87,231.93Z" style="fill:#F17260"></path><path d="M308.87,231.93h-8.75a.49.49,0,0,1-.49-.49h0a.49.49,0,0,1,.49-.49h8.75a.49.49,0,0,1,.49.49h0A.49.49,0,0,1,308.87,231.93Z" style="fill:#fff;opacity:0.5"></path><path d="M308.87,251.23h-8.75a.49.49,0,0,1-.49-.49h0a.49.49,0,0,1,.49-.49h8.75a.49.49,0,0,1,.49.49h0A.49.49,0,0,1,308.87,251.23Z" style="fill:#F17260"></path><path d="M308.87,251.23h-8.75a.49.49,0,0,1-.49-.49h0a.49.49,0,0,1,.49-.49h8.75a.49.49,0,0,1,.49.49h0A.49.49,0,0,1,308.87,251.23Z" style="fill:#fff;opacity:0.5"></path><polygon points="300.21 246.33 308.78 243.46 308.78 235.85 300.21 238.72 300.21 246.33" style="fill:#fff;opacity:0.8"></polygon><path d="M319.45,232.35l-.37-.61h-7.36l-.37.61a1.73,1.73,0,0,0-.23.86V249a1.73,1.73,0,0,0,.23.86l.37.61h7.36l.37-.61a1.74,1.74,0,0,0,.24-.86V233.21A1.74,1.74,0,0,0,319.45,232.35Z" style="fill:#263238"></path><path d="M319.77,231.93H311a.5.5,0,0,1-.5-.49h0a.5.5,0,0,1,.5-.49h8.74a.49.49,0,0,1,.5.49h0A.49.49,0,0,1,319.77,231.93Z" style="fill:#F17260"></path><path d="M319.77,231.93H311a.5.5,0,0,1-.5-.49h0a.5.5,0,0,1,.5-.49h8.74a.49.49,0,0,1,.5.49h0A.49.49,0,0,1,319.77,231.93Z" style="fill:#fff;opacity:0.5"></path><path d="M319.77,251.23H311a.5.5,0,0,1-.5-.49h0a.5.5,0,0,1,.5-.49h8.74a.49.49,0,0,1,.5.49h0A.49.49,0,0,1,319.77,251.23Z" style="fill:#F17260"></path><path d="M319.77,251.23H311a.5.5,0,0,1-.5-.49h0a.5.5,0,0,1,.5-.49h8.74a.49.49,0,0,1,.5.49h0A.49.49,0,0,1,319.77,251.23Z" style="fill:#fff;opacity:0.5"></path><polygon points="311.12 246.33 319.69 243.46 319.69 235.85 311.12 238.72 311.12 246.33" style="fill:#fff;opacity:0.8"></polygon><path d="M314.18,252.51l-.37-.61h-7.36l-.37.61a1.74,1.74,0,0,0-.23.87v15.75a1.7,1.7,0,0,0,.23.86l.37.62h7.36l.37-.62a1.71,1.71,0,0,0,.24-.86V253.38A1.75,1.75,0,0,0,314.18,252.51Z" style="fill:#263238"></path><path d="M314.51,252.1h-8.75a.5.5,0,0,1-.49-.5h0a.49.49,0,0,1,.49-.49h8.75a.49.49,0,0,1,.49.49h0A.5.5,0,0,1,314.51,252.1Z" style="fill:#F17260"></path><path d="M314.51,252.1h-8.75a.5.5,0,0,1-.49-.5h0a.49.49,0,0,1,.49-.49h8.75a.49.49,0,0,1,.49.49h0A.5.5,0,0,1,314.51,252.1Z" style="fill:#fff;opacity:0.5"></path><path d="M314.51,271.4h-8.75a.49.49,0,0,1-.49-.49h0a.49.49,0,0,1,.49-.5h8.75a.49.49,0,0,1,.49.5h0A.49.49,0,0,1,314.51,271.4Z" style="fill:#F17260"></path><path d="M314.51,271.4h-8.75a.49.49,0,0,1-.49-.49h0a.49.49,0,0,1,.49-.5h8.75a.49.49,0,0,1,.49.5h0A.49.49,0,0,1,314.51,271.4Z" style="fill:#fff;opacity:0.5"></path><polygon points="305.85 266.49 314.42 263.62 314.42 256.02 305.85 258.89 305.85 266.49" style="fill:#fff;opacity:0.8"></polygon><path d="M324.25,252.51l-.37-.61h-7.36l-.36.61a1.65,1.65,0,0,0-.24.87v15.75a1.62,1.62,0,0,0,.24.86l.36.62h7.36l.37-.62a1.62,1.62,0,0,0,.24-.86V253.38A1.65,1.65,0,0,0,324.25,252.51Z" style="fill:#263238"></path><path d="M324.58,252.1h-8.75a.5.5,0,0,1-.49-.5h0a.49.49,0,0,1,.49-.49h8.75a.49.49,0,0,1,.49.49h0A.5.5,0,0,1,324.58,252.1Z" style="fill:#F17260"></path><path d="M324.58,252.1h-8.75a.5.5,0,0,1-.49-.5h0a.49.49,0,0,1,.49-.49h8.75a.49.49,0,0,1,.49.49h0A.5.5,0,0,1,324.58,252.1Z" style="fill:#fff;opacity:0.5"></path><path d="M324.58,271.4h-8.75a.49.49,0,0,1-.49-.49h0a.49.49,0,0,1,.49-.5h8.75a.49.49,0,0,1,.49.5h0A.49.49,0,0,1,324.58,271.4Z" style="fill:#F17260"></path><path d="M324.58,271.4h-8.75a.49.49,0,0,1-.49-.49h0a.49.49,0,0,1,.49-.5h8.75a.49.49,0,0,1,.49.5h0A.49.49,0,0,1,324.58,271.4Z" style="fill:#fff;opacity:0.5"></path><polygon points="315.92 266.49 324.49 263.62 324.49 256.02 315.92 258.89 315.92 266.49" style="fill:#fff;opacity:0.8"></polygon><path d="M303.74,252.51l-.37-.61H296l-.37.61a1.75,1.75,0,0,0-.24.87v15.75a1.71,1.71,0,0,0,.24.86l.37.62h7.36l.37-.62a1.7,1.7,0,0,0,.23-.86V253.38A1.74,1.74,0,0,0,303.74,252.51Z" style="fill:#263238"></path><path d="M304.06,252.1h-8.74a.5.5,0,0,1-.5-.5h0a.49.49,0,0,1,.5-.49h8.74a.49.49,0,0,1,.5.49h0A.5.5,0,0,1,304.06,252.1Z" style="fill:#F17260"></path><path d="M304.06,252.1h-8.74a.5.5,0,0,1-.5-.5h0a.49.49,0,0,1,.5-.49h8.74a.49.49,0,0,1,.5.49h0A.5.5,0,0,1,304.06,252.1Z" style="fill:#fff;opacity:0.5"></path><path d="M304.06,271.4h-8.74a.49.49,0,0,1-.5-.49h0a.5.5,0,0,1,.5-.5h8.74a.5.5,0,0,1,.5.5h0A.49.49,0,0,1,304.06,271.4Z" style="fill:#F17260"></path><path d="M304.06,271.4h-8.74a.49.49,0,0,1-.5-.49h0a.5.5,0,0,1,.5-.5h8.74a.5.5,0,0,1,.5.5h0A.49.49,0,0,1,304.06,271.4Z" style="fill:#fff;opacity:0.5"></path><polygon points="295.4 266.49 303.98 263.62 303.98 256.02 295.4 258.89 295.4 266.49" style="fill:#fff;opacity:0.8"></polygon><path d="M314.18,212.19l-.37-.62h-7.36l-.37.62a1.7,1.7,0,0,0-.23.86V228.8a1.74,1.74,0,0,0,.23.87l.37.61h7.36l.37-.61a1.75,1.75,0,0,0,.24-.87V213.05A1.71,1.71,0,0,0,314.18,212.19Z" style="fill:#263238"></path><path d="M314.51,211.77h-8.75a.49.49,0,0,1-.49-.5h0a.49.49,0,0,1,.49-.49h8.75a.49.49,0,0,1,.49.49h0A.49.49,0,0,1,314.51,211.77Z" style="fill:#F17260"></path><path d="M314.51,211.77h-8.75a.49.49,0,0,1-.49-.5h0a.49.49,0,0,1,.49-.49h8.75a.49.49,0,0,1,.49.49h0A.49.49,0,0,1,314.51,211.77Z" style="fill:#fff;opacity:0.5"></path><path d="M314.51,231.07h-8.75a.49.49,0,0,1-.49-.49h0a.5.5,0,0,1,.49-.5h8.75a.5.5,0,0,1,.49.5h0A.49.49,0,0,1,314.51,231.07Z" style="fill:#F17260"></path><path d="M314.51,231.07h-8.75a.49.49,0,0,1-.49-.49h0a.5.5,0,0,1,.49-.5h8.75a.5.5,0,0,1,.49.5h0A.49.49,0,0,1,314.51,231.07Z" style="fill:#fff;opacity:0.5"></path><polygon points="305.85 226.16 314.42 223.29 314.42 215.69 305.85 218.56 305.85 226.16" style="fill:#fff;opacity:0.8"></polygon><path d="M290.69,276.43h5.6a0,0,0,0,1,0,0V394.71a1.47,1.47,0,0,1-1.47,1.47h-2.66a1.47,1.47,0,0,1-1.47-1.47V276.43A0,0,0,0,1,290.69,276.43Z" style="fill:#263238"></path><path d="M304.59,276.43h5.6a0,0,0,0,1,0,0V394.71a1.47,1.47,0,0,1-1.47,1.47h-2.66a1.47,1.47,0,0,1-1.47-1.47V276.43A0,0,0,0,1,304.59,276.43Z" style="fill:#263238"></path><path d="M399.49,276.43h5.6a0,0,0,0,1,0,0V394.71a1.47,1.47,0,0,1-1.47,1.47H401a1.47,1.47,0,0,1-1.47-1.47V276.43A0,0,0,0,1,399.49,276.43Z" style="fill:#263238"></path><path d="M413.39,276.43H419a0,0,0,0,1,0,0V394.71a1.47,1.47,0,0,1-1.47,1.47h-2.66a1.47,1.47,0,0,1-1.47-1.47V276.43A0,0,0,0,1,413.39,276.43Z" style="fill:#263238"></path><path d="M428.87,271.49c12.91,4.8,16.43,25.4,0,28-6.16,1-11.81-7.56-18.46-7.56s-11.81,7.56-18.46,7.56S380.14,292,373.49,292s-11.81,7.56-18.46,7.56S343.22,292,336.57,292s-11.81,7.56-18.46,7.56S306.3,292,299.65,292s-12.29,8.55-18.46,7.56c-16.42-2.62-14-23.73,0-28Z" style="fill:#F17260"></path><path d="M428.87,271.49c12.91,4.8,16.43,25.4,0,28-6.16,1-11.81-7.56-18.46-7.56s-11.81,7.56-18.46,7.56S380.14,292,373.49,292s-11.81,7.56-18.46,7.56S343.22,292,336.57,292s-11.81,7.56-18.46,7.56S306.3,292,299.65,292s-12.29,8.55-18.46,7.56c-16.42-2.62-14-23.73,0-28Z" style="opacity:0.2"></path><path d="M270,289.46H439.75A15.59,15.59,0,0,0,439,282H270.58A15.07,15.07,0,0,0,270,289.46Z" style="fill:#fff;opacity:0.5"></path><path d="M308.92,295.75V271.49h-7.48v20.66C304.07,292.66,306.49,294.2,308.92,295.75Z" style="fill:#fff;opacity:0.5"></path><path d="M421.74,297.34V271.49h-7.48v21.33C416.84,293.91,419.3,295.83,421.74,297.34Z" style="fill:#fff;opacity:0.5"></path><path d="M336.57,292c.19,0,.37,0,.55,0v-20.5h-7.47V294.3A13.69,13.69,0,0,1,336.57,292Z" style="fill:#fff;opacity:0.5"></path><path d="M280.71,299.41V271.66a16,16,0,0,0-7.48,5.33v18.7A13.89,13.89,0,0,0,280.71,299.41Z" style="fill:#fff;opacity:0.5"></path><path d="M392,299.51a9.1,9.1,0,0,0,1.58-.15V271.49h-7.47v26.26A12.37,12.37,0,0,0,392,299.51Z" style="fill:#fff;opacity:0.5"></path><path d="M365.33,295.05V271.49h-7.48v27.57C360.45,298.28,362.88,296.6,365.33,295.05Z" style="fill:#fff;opacity:0.5"></path><rect x="273.23" y="281.98" width="7.48" height="7.48" style="fill:#fff"></rect><rect x="301.44" y="281.98" width="7.48" height="7.48" style="fill:#fff"></rect><rect x="329.65" y="281.98" width="7.48" height="7.48" style="fill:#fff"></rect><rect x="357.85" y="281.98" width="7.48" height="7.48" style="fill:#fff"></rect><rect x="386.06" y="281.98" width="7.48" height="7.48" style="fill:#fff"></rect><rect x="414.26" y="281.98" width="7.48" height="7.48" style="fill:#fff"></rect><path d="M407.78,220.78V205a2.21,2.21,0,0,0-2.22-2.22h-2.15A2.21,2.21,0,0,0,401.2,205v15.81l-2.84,4.73a16.23,16.23,0,0,0-2.32,8.36v35.4a2.89,2.89,0,0,0,2.9,2.89H410a2.89,2.89,0,0,0,2.89-2.89v-35.4a16.32,16.32,0,0,0-2.31-8.36Z" style="fill:#F17260"></path><path d="M407.78,220.78V205a2.21,2.21,0,0,0-2.22-2.22h-2.15A2.21,2.21,0,0,0,401.2,205v15.81l-2.84,4.73a16.23,16.23,0,0,0-2.32,8.36v35.4a2.89,2.89,0,0,0,2.9,2.89H410a2.89,2.89,0,0,0,2.89-2.89v-35.4a16.32,16.32,0,0,0-2.31-8.36Z" style="fill:#263238"></path><path d="M401.38,247.69c0,12.57.24,22.75-.62,22.75s-1.57-10.18-1.57-22.75,1.64-22.76,2.5-22.76S401.38,235.12,401.38,247.69Z" style="fill:#fff;opacity:0.6000000000000001"></path><path d="M403.63,213.06c0,4.42-.45,8-1,8s-.15-3.59-.15-8,.45-8,1-8S403.63,208.63,403.63,213.06Z" style="fill:#fff;opacity:0.6000000000000001"></path><path d="M337.87,271.72h-8a1.28,1.28,0,0,1-1.27-1.22l-.79-19.59h12.09l-.8,19.59A1.27,1.27,0,0,1,337.87,271.72Z" style="fill:#263238"></path><rect x="326.93" y="249.5" width="13.92" height="1.41" rx="0.63" style="fill:#F17260"></rect><rect x="326.93" y="249.5" width="13.92" height="1.41" rx="0.63" style="fill:#fff;opacity:0.5"></rect><g style="opacity:0.4"><path d="M294.82,270.91a.49.49,0,0,0,.5.49h8.74a.5.5,0,1,0,0-1h-.57l.25-.42a1.7,1.7,0,0,0,.23-.86V253.38a1.74,1.74,0,0,0-.23-.87l-.25-.41h.57a.5.5,0,0,0,.5-.5.47.47,0,0,0-.18-.37h1.06a.5.5,0,0,0,.32.87h.58l-.26.41a1.74,1.74,0,0,0-.23.87v15.75a1.7,1.7,0,0,0,.23.86l.26.42h-.58a.5.5,0,0,0,0,1h8.75a.5.5,0,0,0,0-1h-.58l.25-.42a1.71,1.71,0,0,0,.24-.86V253.38a1.75,1.75,0,0,0-.24-.87l-.25-.41h.58a.5.5,0,0,0,.49-.5.47.47,0,0,0-.18-.37h.69a.5.5,0,0,0,.32.87h.58l-.25.41a1.65,1.65,0,0,0-.24.87v5.51h0v7.6h0v2.64a1.62,1.62,0,0,0,.24.86l.25.42h-.58a.5.5,0,0,0,0,1h8.75a.5.5,0,0,0,0-1H324l.25-.42a1.62,1.62,0,0,0,.24-.86V253.38a1.65,1.65,0,0,0-.24-.87l-.25-.41h.58a.5.5,0,0,0,.49-.5.49.49,0,0,0-.49-.49h-4.49a.47.47,0,0,0,.18-.37.49.49,0,0,0-.49-.49h-.58l.25-.42a1.74,1.74,0,0,0,.24-.86V233.21a1.74,1.74,0,0,0-.24-.86l-.25-.42h.58a.49.49,0,0,0,0-1h-5a.47.47,0,0,0,.18-.37.5.5,0,0,0-.49-.5h-.58l.25-.41a1.75,1.75,0,0,0,.24-.87V213.05a1.71,1.71,0,0,0-.24-.86l-.25-.42h.58a.5.5,0,0,0,0-1h-8.75a.5.5,0,0,0,0,1h.58l-.26.42a1.7,1.7,0,0,0-.23.86V228.8a1.74,1.74,0,0,0,.23.87l.26.41h-.58a.5.5,0,0,0-.32.87h-5.32a.49.49,0,0,0,0,1h.58l-.25.42a1.64,1.64,0,0,0-.24.86V249a1.64,1.64,0,0,0,.24.86l.25.42h-.58a.49.49,0,0,0-.49.49.5.5,0,0,0,.17.37h-4.48a.49.49,0,0,0-.5.49.5.5,0,0,0,.5.5h.57l-.25.41a1.75,1.75,0,0,0-.24.87v15.75a1.71,1.71,0,0,0,.24.86l.25.42h-.57A.5.5,0,0,0,294.82,270.91Zm13.72-21.08a1.74,1.74,0,0,0,.24-.86V233.21a1.74,1.74,0,0,0-.24-.86l-.25-.42h.58a.49.49,0,0,0,.49-.49.47.47,0,0,0-.18-.37h1.53a.51.51,0,0,0-.18.37.5.5,0,0,0,.5.49h.58l-.26.42a1.73,1.73,0,0,0-.23.86v5.51h0v7.61h0V249a1.73,1.73,0,0,0,.23.86l.26.42H311a.5.5,0,0,0-.5.49.51.51,0,0,0,.18.37h-1.53a.47.47,0,0,0,.18-.37.49.49,0,0,0-.49-.49h-.58Z" style="fill:#fff"></path><path d="M439.89,286.82v-.2l-.06-.75,0-.26c0-.25-.07-.5-.11-.75,0-.08,0-.15,0-.23A16.71,16.71,0,0,0,439,282h0a17.31,17.31,0,0,0-10.08-10.49h-17a2.89,2.89,0,0,0,1.06-2.22v-35.4a16.32,16.32,0,0,0-2.31-8.36l-2.84-4.73V205a2.21,2.21,0,0,0-2.21-2.22h-2.16A2.21,2.21,0,0,0,401.2,205v15.81l-2.84,4.73a16.23,16.23,0,0,0-2.32,8.36v35.4a2.89,2.89,0,0,0,1.06,2.22H338.56a1.23,1.23,0,0,0,.58-1l.8-19.59h.28a.63.63,0,0,0,.63-.63v-.15a.63.63,0,0,0-.63-.63H327.56a.63.63,0,0,0-.63.63v.15a.63.63,0,0,0,.63.63h.29l.79,19.59a1.26,1.26,0,0,0,.58,1h-48a15.94,15.94,0,0,0-8,5.5h0a16.56,16.56,0,0,0-2.65,5h0a15.81,15.81,0,0,0-.73,3.58l0,.24,0,.69v.38c0,.21,0,.42,0,.62l0,.46c0,.19,0,.37.05.56s.08.59.13.89a12,12,0,0,0,3.23,6.28h0a12.1,12.1,0,0,0,2.2,1.75l.12.07c.26.16.53.31.8.45l.14.07a15.73,15.73,0,0,0,4.7,1.48c3.23.52,6.32-1.59,9.49-3.71v98.91a1.47,1.47,0,0,0,1.47,1.47h2.66a1.47,1.47,0,0,0,1.47-1.47V292.63a9.64,9.64,0,0,1,3.36-.68,8.92,8.92,0,0,1,1.79.2,13.23,13.23,0,0,1,3.15,1.09V394.71a1.47,1.47,0,0,0,1.47,1.47h2.66a1.47,1.47,0,0,0,1.47-1.47V296.56c2.53,1.58,5.09,2.95,7.92,2.95,4.19,0,7.79-3,11.54-5.21h0l.9-.51.38-.2.66-.33.38-.18c.28-.13.56-.24.84-.35l.19-.08c.34-.13.68-.23,1-.33l.31-.07a7.55,7.55,0,0,1,.8-.16l.33-.05a8,8,0,0,1,1.1-.08c.19,0,.37,0,.55,0h0c6.38.4,11.46,7.52,17.91,7.52,2.69,0,5.14-1.24,7.54-2.71h0c.89-.55,1.79-1.13,2.68-1.69l.07-.05h0c2.6-1.63,5.24-3.1,8.16-3.1,4.58,0,8.47,3.59,12.61,5.83q.48.25,1,.48l.23.11c.33.15.67.29,1,.42l.18.06.93.3.18.05c.34.08.69.15,1,.21l.23,0a10.15,10.15,0,0,0,1.1.07c.33,0,.64,0,1-.06a16.32,16.32,0,0,0,6.58-2.65v97.91a1.47,1.47,0,0,0,1.47,1.47h2.66a1.47,1.47,0,0,0,1.47-1.47V293.42a11.81,11.81,0,0,1,5.32-1.47,9.24,9.24,0,0,1,3,.55V394.71a1.47,1.47,0,0,0,1.47,1.47h2.66a1.47,1.47,0,0,0,1.47-1.47V295.54c.78.52,1.55,1,2.33,1.53l.42.27h0c2.36,1.46,4.71,2.56,7.13,2.17C436.86,298.24,440.12,292.71,439.89,286.82Z" style="fill:#fff"></path></g></g><g id="freepik--character-2--inject-200"><path d="M169.76,151.49l-3.43-7,1.42-9.16a2.93,2.93,0,0,0-1.4-3l-.8-.46a2.89,2.89,0,0,0-3.22.18l-3.17,2.37a2.91,2.91,0,0,0-1.16,2.33,26.34,26.34,0,0,0,0,3.94,38,38,0,0,0,2.12,5.22l3.27,9.31Z" style="fill:#ce7a63"></path><path d="M171.5,143.48h-7.57a1.21,1.21,0,0,1-1.2-1.16L162,123.71h11.49l-.75,18.61A1.22,1.22,0,0,1,171.5,143.48Z" style="fill:#F17260"></path><rect x="161.1" y="122.37" width="13.22" height="1.34" rx="0.63" style="fill:#F17260"></rect><rect x="161.1" y="122.37" width="13.22" height="1.34" rx="0.63" style="fill:#fff;opacity:0.5"></rect><path d="M202.77,155.31c-3.65.68-12.52,3.59-22.62,9a2.19,2.19,0,0,1-3.09-1.18l-7.95-15.4-8,3.59s6.54,28.75,12.42,29.73c4,.67,14.75-3.45,21.31-6.19a11.44,11.44,0,0,0,6.69-7.77l2.6-10.35A1.16,1.16,0,0,0,202.77,155.31Z" style="fill:#F17260"></path><path d="M202.77,155.31c-3.65.68-12.52,3.59-22.62,9a2.19,2.19,0,0,1-3.09-1.18l-7.95-15.4-8,3.59s6.54,28.75,12.42,29.73c4,.67,14.75-3.45,21.31-6.19a11.44,11.44,0,0,0,6.69-7.77l2.6-10.35A1.16,1.16,0,0,0,202.77,155.31Z" style="fill:#fff;opacity:0.5"></path><path d="M202.5,163.18h-3.74s-4.24,10.38-10.9,14.44c2.51-.93,4.94-1.91,7-2.76a11.44,11.44,0,0,0,6.69-7.77Z" style="opacity:0.2"></path><polygon points="223.34 379.33 226.65 403.22 235.59 403.22 233.63 378.22 223.34 379.33" style="fill:#ce7a63"></polygon><path d="M222.55,399.79a3.87,3.87,0,0,1-2.65-.74.8.8,0,0,1,0-.93,1.1,1.1,0,0,1,.68-.49c1.52-.39,4.64,1.47,4.78,1.56a.23.23,0,0,1,.1.22.21.21,0,0,1-.18.17A16.08,16.08,0,0,1,222.55,399.79ZM221.14,398a1.44,1.44,0,0,0-.41.05.58.58,0,0,0-.42.29c-.17.26-.11.39-.05.47.4.59,2.69.65,4.37.47A10.05,10.05,0,0,0,221.14,398Z" style="fill:#F17260"></path><path d="M225.29,399.58a.14.14,0,0,1-.09,0c-1.07-.5-3.21-2.5-3-3.51,0-.25.22-.54.81-.59a1.55,1.55,0,0,1,1.18.39c1.14,1,1.33,3.41,1.34,3.52a.19.19,0,0,1-.1.19A.17.17,0,0,1,225.29,399.58Zm-2.15-3.7-.12,0c-.39,0-.41.18-.43.24-.07.61,1.33,2.17,2.44,2.85a5.05,5.05,0,0,0-1.15-2.79,1.12,1.12,0,0,0-.74-.28Z" style="fill:#F17260"></path><path d="M226.27,398.33l9.87.18a.81.81,0,0,1,.77.64l1.63,8.06a1.32,1.32,0,0,1-1,1.57,1.27,1.27,0,0,1-.28,0c-3.55-.13-6.72-.38-11.15-.46-5.23-.09-3.91.56-10.06.54-3.71,0-4.31-4.25-2.73-4.42,7.2-.78,8-2.94,10.81-5.46A3.23,3.23,0,0,1,226.27,398.33Z" style="fill:#263238"></path><polygon points="234.83 393.45 233.84 380.8 223.34 379.33 225.35 393.83 234.83 393.45" style="opacity:0.2"></polygon><polygon points="182.45 379.33 184.77 403.22 193.72 403.22 193.72 378.22 182.45 379.33" style="fill:#ce7a63"></polygon><path d="M180.68,399.79c-1.12,0-2.28-.25-2.64-.74a.8.8,0,0,1,0-.93,1.1,1.1,0,0,1,.68-.49c1.52-.39,4.64,1.47,4.78,1.56a.2.2,0,0,1,.1.22.21.21,0,0,1-.18.17A16,16,0,0,1,180.68,399.79Zm-1.4-1.79a1.4,1.4,0,0,0-.41.05.6.6,0,0,0-.43.29c-.16.26-.11.39-.05.47.41.59,2.69.65,4.38.47A10.2,10.2,0,0,0,179.28,398Z" style="fill:#F17260"></path><path d="M183.42,399.58a.14.14,0,0,1-.09,0c-1.07-.5-3.21-2.5-3-3.51,0-.25.22-.54.81-.59a1.58,1.58,0,0,1,1.19.39c1.13,1,1.33,3.41,1.34,3.52a.23.23,0,0,1-.1.19A.2.2,0,0,1,183.42,399.58Zm-2.14-3.7-.13,0c-.38,0-.41.18-.43.24-.06.61,1.33,2.17,2.44,2.85a5.05,5.05,0,0,0-1.15-2.79,1.09,1.09,0,0,0-.73-.28Z" style="fill:#F17260"></path><path d="M184.4,398.33l9.87.18a.8.8,0,0,1,.77.64l1.64,8.06a1.33,1.33,0,0,1-1,1.57l-.28,0c-3.56-.13-6.72-.38-11.15-.46-5.23-.09-3.92.56-10.07.54-3.7,0-4.3-4.25-2.73-4.42,7.21-.78,8-2.94,10.81-5.46A3.23,3.23,0,0,1,184.4,398.33Z" style="fill:#263238"></path><polygon points="193.72 393.23 193.72 383.21 183 385.02 183.87 393.96 193.72 393.23" style="opacity:0.2"></polygon><path d="M187.24,229.12s-7.19,29.08-8.82,84S182,391.82,182,391.82l14.38-1.63s2-48.52,2-64.69c0-3.27.65-13.07.65-13.07s3.41-36.5,8.82-47.37c3.92-7.88,8.78-10.44,7.17-34.46Z" style="fill:#F17260"></path><path d="M187.24,229.12s-7.19,29.08-8.82,84S182,391.82,182,391.82l14.38-1.63s2-48.52,2-64.69c0-3.27.65-13.07.65-13.07s3.41-36.5,8.82-47.37c3.92-7.88,8.78-10.44,7.17-34.46Z" style="opacity:0.2"></path><path d="M212,257.46l.19-3.1-7-1.47s-4.09,20.63-3.76,39.47h0c1.53-10.37,3.71-21.95,6.37-27.31C209.22,262.25,210.73,260.12,212,257.46Z" style="opacity:0.2"></path><path d="M202.27,232.39s-.39,6,.87,21c.28,3.3,2.63,10.77,3.1,14.51,1.87,14.83,2.07,32.65,4.52,50.13,5.88,41.82,11.11,72.2,11.11,72.2l15.68-1s-2.36-39.46-3.72-52.89c-.53-5.25-1.83-20.95-1.83-20.95S229.3,279,230.69,267c1-8.6,5.23-12.41,1.64-34.63l-30.06-3.27Z" style="fill:#F17260"></path><path d="M202.27,232.39s-.39,6,.87,21c.28,3.3,2.63,10.77,3.1,14.51,1.87,14.83,2.07,32.65,4.52,50.13,5.88,41.82,11.11,72.2,11.11,72.2l15.68-1s-2.36-39.46-3.72-52.89c-.53-5.25-1.83-20.95-1.83-20.95S229.3,279,230.69,267c1-8.6,5.23-12.41,1.64-34.63l-30.06-3.27Z" style="opacity:0.2"></path><path d="M187.57,228.47s-10.11-5.81,1.63-36.84c7-18.58,9.59-28.16,10.53-32.78a5,5,0,0,1,4.82-4c7.31-.15,22.72.53,36.6,7.74A5.3,5.3,0,0,1,244,167.5c-.4,9.36-2.35,37.17-11.65,65.62Z" style="fill:#F17260"></path><path d="M187.57,228.47s-10.11-5.81,1.63-36.84c7-18.58,9.59-28.16,10.53-32.78a5,5,0,0,1,4.82-4c7.31-.15,22.72.53,36.6,7.74A5.3,5.3,0,0,1,244,167.5c-.4,9.36-2.35,37.17-11.65,65.62Z" style="fill:#fff;opacity:0.5"></path><path d="M216.56,163.49a1.25,1.25,0,1,1-1.25-1.25A1.25,1.25,0,0,1,216.56,163.49Z" style="fill:#fff"></path><circle cx="209.8" cy="178.42" r="1.25" style="fill:#fff"></circle><path d="M204.64,196a1.25,1.25,0,1,1-1.25-1.25A1.25,1.25,0,0,1,204.64,196Z" style="fill:#fff"></path><path d="M202.68,213.49a1.25,1.25,0,1,1-1.25-1.25A1.25,1.25,0,0,1,202.68,213.49Z" style="fill:#fff"></path><polygon points="180.22 387.7 181.2 392.35 197.49 390.76 197.86 385.68 180.22 387.7" style="fill:#F17260"></polygon><polygon points="220.2 387.35 221.18 392.01 238.6 390.96 238.6 386.02 220.2 387.35" style="fill:#F17260"></polygon><path d="M214.47,153.21l2.09,4.61,2.86,1,10.82-3.08c-2.57-3,.62-9.06,1.64-14.17.39-1.91-4.2-3.37-5.68-2.38l-8.82,5.05C218,147.89,217.79,151.22,214.47,153.21Z" style="fill:#ce7a63"></path><path d="M222.8,151a15.54,15.54,0,0,0,5.49-2.45,36.47,36.47,0,0,1,.78-7c.38-1.91-1.39-3.37-2.87-2.38l-8.82,5.05c.45,2.64.46,5.09-.8,7A15.17,15.17,0,0,0,222.8,151Z" style="opacity:0.2;isolation:isolate"></path><path d="M237.22,133c-2.06,7.67-2.89,12.28-8.11,15.37-7.85,4.68-17.94-1-18.46-9.26-.47-7.37,3-18.68,12.23-20S239.32,125.34,237.22,133Z" style="fill:#ce7a63"></path><path d="M222.79,130.49c-.26.64-.83,1-1.25.84s-.55-.85-.27-1.49.83-1,1.26-.84S223.07,129.85,222.79,130.49Z" style="fill:#263238"></path><path d="M215.23,129.05c-.28.65-.83,1-1.26.85s-.54-.85-.26-1.5.83-1,1.25-.84S215.51,128.43,215.23,129.05Z" style="fill:#263238"></path><path d="M226.23,128.91a.4.4,0,0,1-.31-.29,3.24,3.24,0,0,0-1.89-2.3.41.41,0,0,1-.26-.52h0a.4.4,0,0,1,.52-.26h0a4.12,4.12,0,0,1,2.42,2.87.41.41,0,0,1-.29.5Z" style="fill:#263238"></path><path d="M213.29,125a.4.4,0,0,1-.3-.49.38.38,0,0,1,.13-.22,4.11,4.11,0,0,1,3.62-1,.4.4,0,0,1,.29.5h0a.41.41,0,0,1-.5.28h0a3.31,3.31,0,0,0-2.87.81A.37.37,0,0,1,213.29,125Z" style="fill:#263238"></path><path d="M216.73,130.24a21.28,21.28,0,0,1-4.41,3.9,3.45,3.45,0,0,0,2.53,1.46Z" style="fill:#ba4d3c"></path><path d="M213.07,137.77s3-.35,11,.34c-1.19,2.11-3.17,3.74-7.31,3.36S213.07,137.77,213.07,137.77Z" style="fill:#263238"></path><path d="M218.9,139.92a8.29,8.29,0,0,0-4.63.66,4.59,4.59,0,0,0,2.51.88,8.23,8.23,0,0,0,4.62-.67A4.6,4.6,0,0,0,218.9,139.92Z" style="fill:#ff5652"></path><path d="M213.45,137.74a1.53,1.53,0,0,0,1.13,1.2,48.07,48.07,0,0,0,7.2.06,2.38,2.38,0,0,0,1.95-.92A75.11,75.11,0,0,0,213.45,137.74Z" style="fill:#fff"></path><polygon points="214.68 153 217.95 157.08 230.69 155.29 235 159.99 221.22 164.6 217.46 159.53 211.42 162.64 209.62 155 214.68 153" style="fill:#F17260"></polygon><polygon points="214.68 153 217.95 157.08 230.69 155.29 235 159.99 221.22 164.6 217.46 159.53 211.42 162.64 209.62 155 214.68 153" style="opacity:0.2"></polygon><path d="M187.67,226.79c3.69,0,18.07.3,44.41,4.05a1.16,1.16,0,0,1,1,.93l.46,2.45a.91.91,0,0,1-1,1.08,417.62,417.62,0,0,0-45.26-4.12,1.16,1.16,0,0,1-1.11-1.39l.4-2.06A1.17,1.17,0,0,1,187.67,226.79Z" style="fill:#263238"></path><path d="M221.22,234.18v-5.32a.65.65,0,0,0-.62-.65l-.91-.06a.66.66,0,0,0-.7.66v5.32a.62.62,0,0,0,.59.62l1,0A.61.61,0,0,0,221.22,234.18Z" style="fill:#263238"></path><path d="M221.22,234.18v-5.32a.65.65,0,0,0-.62-.65l-.91-.06a.66.66,0,0,0-.7.66v5.32a.62.62,0,0,0,.59.62l1,0A.61.61,0,0,0,221.22,234.18Z" style="fill:#fff;opacity:0.2"></path><path d="M188.18,231.51l.75-5a.68.68,0,0,1,.72-.58l.81.05a.67.67,0,0,1,.63.78l-.74,5a.61.61,0,0,1-.67.52l-1-.1A.61.61,0,0,1,188.18,231.51Z" style="fill:#263238"></path><path d="M188.18,231.51l.75-5a.68.68,0,0,1,.72-.58l.81.05a.67.67,0,0,1,.63.78l-.74,5a.61.61,0,0,1-.67.52l-1-.1A.61.61,0,0,1,188.18,231.51Z" style="fill:#fff;opacity:0.2"></path><path d="M196.81,232.36c3,.21,6.39.47,9.25.71v-5.74c-3.27-.3-6.22-.53-8.86-.72Z" style="fill:#fff"></path><path d="M242.09,175.71h-2.34a110.2,110.2,0,0,0,.9,22.84c1.31-7.87,2.12-14.91,2.62-20.53Z" style="opacity:0.30000000000000004"></path><path d="M223.67,212.79l-5.66.81-2.92-4.12a3,3,0,0,0-2.45-1.27h-1.32a3,3,0,0,0-2.58,1.46h0a3,3,0,0,0-.06,3l2.61,4.7a3,3,0,0,0,1.85,1.45l4.49,1.21a3.47,3.47,0,0,0,.78.1h7.38Z" style="fill:#ce7a63"></path><path d="M244.11,163.94c3.75,4,12.93,16.43,11.57,42.1a12.87,12.87,0,0,1-7.4,11,48.35,48.35,0,0,1-25.71,3.77l-1.35-8.62,18.62-6.66a4.6,4.6,0,0,0,3-5c-.48-3.34-1.14-8-1.42-10-.91-6.4-3.58-13.87.45-26.16A1.33,1.33,0,0,1,244.11,163.94Z" style="fill:#F17260"></path><path d="M244.11,163.94c3.75,4,12.93,16.43,11.57,42.1a12.87,12.87,0,0,1-7.4,11,48.35,48.35,0,0,1-25.71,3.77l-1.35-8.62,18.62-6.66a4.6,4.6,0,0,0,3-5c-.48-3.34-1.14-8-1.42-10-.91-6.4-3.58-13.87.45-26.16A1.33,1.33,0,0,1,244.11,163.94Z" style="fill:#fff;opacity:0.5"></path><path d="M234.46,139.08s-2.23-4.9-.87-9.35a8,8,0,0,0-1.94-7.65s-10,1.55-14.44-2.18a1.74,1.74,0,0,1,1.68-3l.07,0a3.21,3.21,0,0,1,4.65-.8s3.2-2.17,5.26.61c0,0,3.26-.58,4.72,2.13a5.13,5.13,0,0,1,3.58,3.86,5,5,0,0,1,2.23,3.89s1.83,3.58,0,5.81c0,0,1.25,3.12-1.41,4.71,0,0-.49,3.65-2.16,3.54A1.34,1.34,0,0,1,234.46,139.08Z" style="fill:#263238"></path><path d="M237.49,140.72a6.56,6.56,0,0,1-4.29,2c-2.06.05-2.26-2.06-1-3.93,1.11-1.64,3.5-3.65,5.22-2.83S239,139.19,237.49,140.72Z" style="fill:#ce7a63"></path></g><g id="freepik--Grill--inject-200"><path d="M275,339.37c0,3-12.36,8.57-27.61,8.57s-27.61-5.55-27.61-8.57,12.36-5.47,27.61-5.47S275,336.35,275,339.37Z" style="fill:#263238"></path><ellipse cx="247.39" cy="339.37" rx="27.61" ry="5.47" style="fill:#fff;opacity:0.2"></ellipse><path d="M201.19,418h0a3,3,0,0,1-2.25-3.6l24-103.93a3,3,0,0,1,3.6-2.25h0a3,3,0,0,1,2.25,3.6l-24,103.93A3,3,0,0,1,201.19,418Z" style="fill:#263238"></path><path d="M293.59,418h0a3,3,0,0,0,2.25-3.6l-24-103.93a3,3,0,0,0-3.6-2.25h0a3,3,0,0,0-2.25,3.6l24,103.93A3,3,0,0,0,293.59,418Z" style="fill:#263238"></path><path d="M282.28,300.66c-17.17,21.16-52.61,21.16-69.78,0-4.65-5.73-16.13-24.73-16.13-24.73,0-5.58,22.84-10.1,51-10.1s51,4.52,51,10.1C298.41,275.93,286.93,294.93,282.28,300.66Z" style="fill:#263238"></path><ellipse cx="247.39" cy="275.93" rx="51.02" ry="10.1" style="fill:#263238"></ellipse><ellipse cx="247.39" cy="275.93" rx="51.02" ry="10.1" style="fill:#fff;opacity:0.2"></ellipse><ellipse cx="247.39" cy="278.99" rx="48.65" ry="7.05" style="fill:#263238"></ellipse><ellipse cx="247.39" cy="278.99" rx="48.65" ry="7.05" style="fill:#fff;opacity:0.5"></ellipse><path d="M233.88,272.3q-1.5.07-3,.18l-15.76,11.28,2.25.34Z" style="fill:#263238"></path><path d="M248.26,271.94h-2.72L227,285.2l2.45.19Z" style="fill:#263238"></path><path d="M241.22,272c-.95,0-1.9.05-2.83.09L221,284.57l2.35.27Z" style="fill:#263238"></path><path d="M265.46,272.59,246.69,286h2.72l18.49-13.23Z" style="fill:#263238"></path><path d="M226.17,272.85l-3.16.31-13.36,9.57c.69.15,1.4.29,2.12.43Z" style="fill:#263238"></path><path d="M201.7,280.43l6.93-5q-2.38.55-4.35,1.17L200,279.69C200.53,279.94,201.09,280.19,201.7,280.43Z" style="fill:#263238"></path><path d="M217.91,273.8c-1.19.16-2.35.34-3.46.53l-9.9,7.09c.61.19,1.27.37,1.94.55Z" style="fill:#263238"></path><path d="M261.59,272.33l-2.53-.13L239.9,285.92l2.63.07Z" style="fill:#263238"></path><path d="M290.35,276.59c-.61-.19-1.26-.37-1.94-.56l-11.33,8.11c1.2-.17,2.36-.34,3.48-.53Z" style="fill:#263238"></path><path d="M294.86,278.33c-.51-.25-1.07-.5-1.67-.75l-6.79,4.86c1.62-.38,3.08-.78,4.41-1.2Z" style="fill:#263238"></path><path d="M285.26,275.27c-.68-.15-1.39-.29-2.12-.43L268.81,285.1c1.07-.1,2.13-.2,3.16-.32Z" style="fill:#263238"></path><path d="M274,273.42c-.76-.1-1.55-.19-2.34-.27L253.73,286l2.84-.09Z" style="fill:#263238"></path><path d="M255.05,272.05c-.87,0-1.75-.05-2.63-.06l-19.07,13.65,2.54.13Z" style="fill:#263238"></path><path d="M279.76,274.23l-2.23-.34-16.45,11.77c1-.05,2-.11,3-.18Z" style="fill:#263238"></path><path d="M248.36,420.19h0a3,3,0,0,1-3-3V310.53a3,3,0,0,1,3-3h0a3,3,0,0,1,3,3V417.19A3,3,0,0,1,248.36,420.19Z" style="fill:#263238"></path><path d="M245.18,276.54c0-1.94-7.73-3.5-17.26-3.5-3.56,0-5.87,1.22-8.62,1.59-4.61.63-8.64.7-8.64,1.91v3c0,1.93,7.72,3.5,17.26,3.5s17.26-1.57,17.26-3.5Z" style="fill:#F17260"></path><path d="M245.18,276.54c0-1.94-7.73-3.5-17.26-3.5-3.56,0-5.87,1.22-8.62,1.59-4.61.63-8.64.7-8.64,1.91v3c0,1.93,7.72,3.5,17.26,3.5s17.26-1.57,17.26-3.5Z" style="opacity:0.2"></path><path d="M245.18,276.54c0,1.93-7.73,3.5-17.26,3.5s-17.26-1.57-17.26-3.5c0-1.21,4-1.28,8.64-1.91,2.75-.37,5.06-1.59,8.62-1.59C237.45,273,245.18,274.6,245.18,276.54Z" style="fill:#F17260"></path><path d="M233.18,276.16c0,.49-1.44.88-3.22.88s-3.22-.39-3.22-.88,1.44-.87,3.22-.87S233.18,275.68,233.18,276.16Z" style="fill:#fff"></path><path d="M253.31,277.4c0-1.72,6.9-3.12,15.41-3.12,3.18,0,5.24,1.09,7.69,1.42,4.11.56,7.71.62,7.71,1.7v2.67c0,1.73-6.89,3.13-15.4,3.13s-15.41-1.4-15.41-3.13Z" style="fill:#F17260"></path><path d="M253.31,277.4c0-1.72,6.9-3.12,15.41-3.12,3.18,0,5.24,1.09,7.69,1.42,4.11.56,7.71.62,7.71,1.7v2.67c0,1.73-6.89,3.13-15.4,3.13s-15.41-1.4-15.41-3.13Z" style="opacity:0.2"></path><path d="M253.31,277.4c0,1.73,6.9,3.12,15.41,3.12s15.4-1.39,15.4-3.12c0-1.08-3.6-1.14-7.71-1.7-2.45-.33-4.51-1.42-7.69-1.42C260.21,274.28,253.31,275.68,253.31,277.4Z" style="fill:#F17260"></path><path d="M264,277.07c0,.43,1.29.78,2.87.78s2.88-.35,2.88-.78-1.29-.78-2.88-.78S264,276.64,264,277.07Z" style="fill:#fff"></path></g><g id="freepik--character-3--inject-200"><path d="M245.21,271l12.56-8.06a.8.8,0,0,1,1.1.21.81.81,0,0,1-.14,1.11l-11.59,9.4.2.28,12.56-9.09a2,2,0,0,0,.8-1.83l21.15-15.3-1.13-1.56-21.15,15.29a2,2,0,0,0-2,.19L245,270.7Z" style="fill:#F17260"></path><path d="M245.21,271l12.56-8.06a.8.8,0,0,1,1.1.21.81.81,0,0,1-.14,1.11l-11.59,9.4.2.28,12.56-9.09a2,2,0,0,0,.8-1.83l21.15-15.3-1.13-1.56-21.15,15.29a2,2,0,0,0-2,.19L245,270.7Z" style="fill:#fff;opacity:0.5"></path><path d="M294,236.49l1.18,1.63a1.85,1.85,0,0,1-.49,2.64l-13.62,9a1.44,1.44,0,0,1-1.95-.36l-.83-1.14a1.43,1.43,0,0,1,.27-2l12.78-10.14A1.86,1.86,0,0,1,294,236.49Z" style="fill:#F17260"></path><path d="M389.06,237.09l-1.41,1.59c3.8,11.4.16,18.41.16,18.41l2.69,1.22c1.65-4.28-.95-17.83-.95-17.83s4,15.61,6.49,9.44S389.06,237.09,389.06,237.09Zm5.58,10c-.48,2.49-3.51-6.3-3.51-6.3S395.11,244.61,394.64,247.11Z" style="fill:#F17260"></path><path d="M389.06,237.09l-1.41,1.59c3.8,11.4.16,18.41.16,18.41l2.69,1.22c1.65-4.28-.95-17.83-.95-17.83s4,15.61,6.49,9.44S389.06,237.09,389.06,237.09Zm5.58,10c-.48,2.49-3.51-6.3-3.51-6.3S395.11,244.61,394.64,247.11Z" style="fill:#fff;opacity:0.5"></path><path d="M321.3,187.05l-3.08,14.48-20.9,26.84-10.15,6.23a3.68,3.68,0,0,0-1.5,4.48l.63,1.58a3.67,3.67,0,0,0,4.21,2.24l5.88-1.3a3.66,3.66,0,0,0,2.56-2.11l3.49-7.91s18.86-16.86,24.09-25.53a83.93,83.93,0,0,0,7.36-15.12Z" style="fill:#ebb376"></path><path d="M326.51,172.41s-5.81-.67-12.94,33.21l14.25,4.55s7.13-12.47,7.6-21.26S326.51,172.41,326.51,172.41Z" style="fill:#F17260"></path><path d="M326.51,172.41s-5.81-.67-12.94,33.21l14.25,4.55s7.13-12.47,7.6-21.26S326.51,172.41,326.51,172.41Z" style="fill:#fff;opacity:0.5"></path><path d="M328.11,179.89v1.46c-.55-1.12,3.09,12.61,1.71,25,1.95-4.33,5.35-12.71,5.6-17.42a16.57,16.57,0,0,0-2.89-9.53l-2.49-2Z" style="opacity:0.1"></path><path d="M337.93,326.55l6.89,79,8,.3s5.23-44.16.76-68.77l.75-11.62Z" style="fill:#ebb376"></path><path d="M372.13,323.46l12.35,82.42h8.16s1.1-53.92-4.12-71.57l-.95-14.38Z" style="fill:#ebb376"></path><path d="M344.58,241.53s-8.55,57.79-7.83,89.93h19.16s2.69-33.79,6.72-46.66,9.2-28.5,7.57-44.32Z" style="fill:#263238"></path><path d="M369.33,259.6l-2.44-4.3-4.26,2.14s-3.77,13.74-2.69,39.76a99.24,99.24,0,0,1,2.69-12.4C365,277.19,367.79,268.61,369.33,259.6Z" style="opacity:0.1"></path><polygon points="335.56 328.29 335.88 334.31 356.78 334.31 357.35 328.29 335.56 328.29" style="fill:#F17260"></polygon><polygon points="335.56 328.29 335.88 334.31 356.78 334.31 357.35 328.29 335.56 328.29" style="fill:#fff;opacity:0.5"></polygon><path d="M360.1,245s5.07,48.77,11.72,86.45l18.68-2.85s-2.22-44.65-1.9-56.84.95-26.13-1-33.09l-27.55,2.85Z" style="fill:#263238"></path><polygon points="370.17 328.29 371.3 334.31 391.74 330.91 391.68 324.82 370.17 328.29" style="fill:#F17260"></polygon><polygon points="370.17 328.29 371.3 334.31 391.74 330.91 391.68 324.82 370.17 328.29" style="fill:#fff;opacity:0.5"></polygon><path d="M341.36,404.49a3.59,3.59,0,0,1-2.47-.69.74.74,0,0,1,0-.87,1,1,0,0,1,.64-.46c1.42-.36,4.34,1.38,4.47,1.46a.19.19,0,0,1,.09.21.2.2,0,0,1-.16.16A15.1,15.1,0,0,1,341.36,404.49Zm-1.31-1.67a1.29,1.29,0,0,0-.39,0,.56.56,0,0,0-.39.28c-.16.24-.11.36,0,.43.38.56,2.52.61,4.09.45A9.3,9.3,0,0,0,340.05,402.82Z" style="fill:#F17260"></path><path d="M343.93,404.29h-.09c-1-.47-3-2.34-2.8-3.29,0-.23.2-.51.75-.55a1.44,1.44,0,0,1,1.11.36c1.07.9,1.25,3.19,1.26,3.3a.21.21,0,0,1-.09.18A.17.17,0,0,1,343.93,404.29Zm-2-3.46h-.11c-.37,0-.39.16-.41.22-.06.57,1.25,2,2.29,2.67a4.77,4.77,0,0,0-1.08-2.62,1,1,0,0,0-.69-.26Z" style="fill:#F17260"></path><path d="M344.85,403.13l9.24.17a.73.73,0,0,1,.71.59l1.54,7.55a1.24,1.24,0,0,1-1,1.47.74.74,0,0,1-.26,0c-3.33-.11-6.29-.35-10.44-.42-4.89-.09-3.66.52-9.42.5-3.47,0-4-4-2.56-4.14,6.75-.73,7.49-2.74,10.13-5.11A3,3,0,0,1,344.85,403.13Z" style="fill:#263238"></path><path d="M380.55,404.49a3.62,3.62,0,0,1-2.48-.69.75.75,0,0,1,0-.87,1,1,0,0,1,.64-.46c1.42-.36,4.34,1.38,4.47,1.46a.19.19,0,0,1,.09.21.22.22,0,0,1-.16.16A15.1,15.1,0,0,1,380.55,404.49Zm-1.31-1.67a1.29,1.29,0,0,0-.39,0,.58.58,0,0,0-.4.28c-.15.24-.1.36-.05.43.39.56,2.52.61,4.1.45A9.3,9.3,0,0,0,379.24,402.82Z" style="fill:#F17260"></path><path d="M383.12,404.29H383c-1-.47-3-2.34-2.81-3.29,0-.23.21-.51.76-.55a1.45,1.45,0,0,1,1.11.36c1.06.9,1.25,3.19,1.26,3.3a.22.22,0,0,1-.1.18A.15.15,0,0,1,383.12,404.29Zm-2-3.46H381c-.36,0-.38.16-.4.22-.06.57,1.24,2,2.28,2.67a4.76,4.76,0,0,0-1.07-2.62,1,1,0,0,0-.69-.26Z" style="fill:#F17260"></path><path d="M384,403.13l9.25.17a.74.74,0,0,1,.71.59l1.54,7.55a1.24,1.24,0,0,1-1,1.47.76.76,0,0,1-.26,0c-3.33-.11-6.29-.35-10.44-.42-4.9-.09-3.66.52-9.42.5-3.47,0-4-4-2.56-4.14,6.75-.73,7.48-2.74,10.12-5.11A3,3,0,0,1,384,403.13Z" style="fill:#263238"></path><path d="M322.73,176s20.67,31.58,19.95,68.16c0,0,16.15,5.27,46.87-3.66,0,0-7.12-53.34-20.22-72.82C369.33,167.66,340.78,156.26,322.73,176Z" style="fill:#F17260"></path><path d="M322.73,176s20.67,31.58,19.95,68.16c0,0,16.15,5.27,46.87-3.66,0,0-7.12-53.34-20.22-72.82C369.33,167.66,340.78,156.26,322.73,176Z" style="fill:#fff;opacity:0.5"></path><path d="M374.44,177.52l-5.11-2.73-4.8,5.83s1.72,12.49,17.67,21.47A173.45,173.45,0,0,0,374.44,177.52Z" style="opacity:0.1"></path><path d="M340.19,176.21c7.81-.39,8.51-8,8.37-11.77a39,39,0,0,0-15.68,3.88C332.47,171.41,332.88,176.58,340.19,176.21Z" style="fill:#ebb376"></path><path d="M334.13,174.09,337,175.9h4.4l4.56-2.46,2.07-5c-4.06-3.9-5.9-13.21-6.56-18.78L338,155.47l-4.66,7.88a24.35,24.35,0,0,1,1.38,2.5C336,168.61,336.45,171.45,334.13,174.09Z" style="fill:#ebb376"></path><path d="M335.35,181.57l4.71-4.79,9.53,1.66s3.75-7.92.63-14.6a1.09,1.09,0,0,0-1.36-.57l-1.08.39a1.1,1.1,0,0,0-.69,1.14c.91,9.58-7.19,10.51-7.19,10.51-7.44-.9-6.24-5.8-5.49-7.67a.36.36,0,0,0-.45-.47l-1.47.49a.34.34,0,0,0-.22.2C331.81,169.06,329.12,177.78,335.35,181.57Z" style="fill:#F17260"></path><path d="M338,155.47l-4.66,7.88a24.35,24.35,0,0,1,1.38,2.5c.16.34.31.69.44,1,7-2,7.19-9.54,7-12.69-.3-1.63-.53-3.18-.69-4.51Z" style="opacity:0.1"></path><path d="M340.43,142c1.52,8.12,2.83,12.78-.13,18a10.73,10.73,0,0,1-19-.36c-3.51-6.67-5.41-18.83,1.52-24.24A10.86,10.86,0,0,1,340.43,142Z" style="fill:#ebb376"></path><path d="M329,147.7c.17.64,0,1.27-.47,1.35s-.89-.3-1.06-1,0-1.28.48-1.36S328.85,147.05,329,147.7Z" style="fill:#2e353a"></path><path d="M321.75,149.8c.17.65,0,1.26-.48,1.36s-.89-.31-1.07-1,.05-1.27.49-1.36S321.58,149.14,321.75,149.8Z" style="fill:#2e353a"></path><path d="M324.14,149.46a25.54,25.54,0,0,1-1.66,6.44c1.4.75,3.22-.28,3.22-.28Z" style="fill:#d58745"></path><path d="M328.75,156.58a5.7,5.7,0,0,0,3.16-3.21.19.19,0,0,0-.11-.25.2.2,0,0,0-.26.11h0a5.44,5.44,0,0,1-3.64,3.21.2.2,0,0,0-.18.22.2.2,0,0,0,.21.18l.08,0A6.44,6.44,0,0,0,328.75,156.58Z" style="fill:#2e353a"></path><path d="M331.54,157.73a5.7,5.7,0,0,0,.52-4.49.2.2,0,0,0-.25-.12.18.18,0,0,0-.12.23h0a5.56,5.56,0,0,1-.88,4.79.19.19,0,0,0,0,.27h0a.18.18,0,0,0,.27,0h0A5.12,5.12,0,0,0,331.54,157.73Z" style="fill:#2e353a"></path><path d="M330.66,144.67a.36.36,0,0,0,.18-.07.4.4,0,0,0,0-.55h0a3.82,3.82,0,0,0-3.5-.74.39.39,0,0,0-.24.49h0a.38.38,0,0,0,.49.24h0a3,3,0,0,1,2.73.57A.35.35,0,0,0,330.66,144.67Z" style="fill:#2e353a"></path><path d="M318,148.18a.38.38,0,0,0,.23-.29,3.28,3.28,0,0,1,1.71-2.35.4.4,0,0,0-.32-.72h0a4.07,4.07,0,0,0-2.15,2.91.39.39,0,0,0,.3.46h0A.33.33,0,0,0,318,148.18Z" style="fill:#2e353a"></path><path d="M340,148.82s-2.49.22-4.51-5.67-5.71-2.21-8-6.24c0,0-13,12.39-15.73,6.24-2.14-4.74,5.19-6.72,5.19-6.72s-3.05-1.19-1.15-4.27c2.34-3.81,7.41-.95,7.41-.95s-.66-3.33,2.56-3.21a10.49,10.49,0,0,1,4.49,1.08,8.45,8.45,0,0,0,4,1c3.9-.06,11.22,1.86,8.83,17.8Z" style="fill:#263238"></path><path d="M345.13,147.87a7.31,7.31,0,0,1-2.19,4.87c-1.75,1.67-3.65.32-4-2-.33-2.07.18-5.42,2.35-6.21S345.23,145.59,345.13,147.87Z" style="fill:#ebb376"></path><path d="M333.72,185.85l25.07-5.75,16.51,22,7.14,28.78,8.06,5v2.85l-7.56,5.22S375.57,274,377.42,305s-43.51,9.85-43.51,9.85,9.69-66,8.16-76.2c0,0,0-20.26-8.71-39.9Z" style="fill:#F17260"></path><g style="opacity:0.2"><path d="M333.72,185.85l25.07-5.75,16.51,22,7.14,28.78,8.06,5v2.85l-7.56,5.22S375.57,274,377.42,305s-43.51,9.85-43.51,9.85,9.69-66,8.16-76.2c0,0,0-20.26-8.71-39.9Z"></path></g><path d="M358.72,181.57s-3.27-8.92.7-15.6a1.24,1.24,0,0,0-.87-1.84l-1-.16a1.24,1.24,0,0,0-1.23.55c-1,1.59-3,6.31-.16,17Z" style="fill:#F17260"></path><path d="M336.87,186.19s-7.15-5.29-7.76-14.47a.83.83,0,0,0-1.26-.66l-.83.5a.84.84,0,0,0-.41.78c.16,1.76,1.25,7.79,8.71,15.15Z" style="fill:#F17260"></path><path d="M346.11,238.68l23.49-3.17s3.48,17.41-12.35,17.25S346.11,238.68,346.11,238.68Z" style="fill:#fff;opacity:0.5"></path><path d="M388.52,184.53s13.78,10.92,11.64,16.15c-2,4.85-17.29,22-19.46,24.41a1.73,1.73,0,0,1-.6.44l-11.43,5.18a1.83,1.83,0,0,1-1.6-.05l-4-2.1a1.84,1.84,0,0,1-.09-3.21l6.38-3.77,8.09-.48,10.63-20.9-10.63-6.89Z" style="fill:#ebb376"></path><path d="M384,218.65c.09.95-9.49,5.51-21.74,6.7s-22.52-1.45-22.62-2.39,9.77-2.68,22-3.86S383.88,217.71,384,218.65Z" style="fill:#F17260"></path><path d="M384,218.65c.09.95-9.49,5.51-21.74,6.7s-22.52-1.45-22.62-2.39,9.77-2.68,22-3.86S383.88,217.71,384,218.65Z" style="fill:#fff;opacity:0.8"></path><path d="M384,218.65c.09.95-9.77,2.68-22,3.87s-22.25,1.38-22.35.44,9.77-2.68,22-3.86S383.88,217.71,384,218.65Z" style="fill:#263238;opacity:0.30000000000000004"></path><path d="M373.49,216.7c-.1-1.5-6.21-2.32-13.65-1.82-2.78.19-4.52,1.27-6.64,1.7-3.57.74-6.71,1-6.65,1.95,0,.52.13,1.86.16,2.33.1,1.51,6.22,2.33,13.65,1.82s13.39-2.13,13.29-3.64C373.62,218.62,373.52,217.12,373.49,216.7Z" style="fill:#F17260"></path><path d="M373.49,216.7c-.1-1.5-6.21-2.32-13.65-1.82-2.78.19-4.52,1.27-6.64,1.7-3.57.74-6.71,1-6.65,1.95,0,.52.13,1.86.16,2.33.1,1.51,6.22,2.33,13.65,1.82s13.39-2.13,13.29-3.64C373.62,218.62,373.52,217.12,373.49,216.7Z" style="opacity:0.2"></path><path d="M373.49,216.7c.1,1.51-5.84,3.14-13.28,3.65s-13.55-.31-13.66-1.82c-.06-.95,3.08-1.21,6.65-1.95,2.12-.43,3.86-1.51,6.64-1.7C367.28,214.38,373.39,215.2,373.49,216.7Z" style="fill:#F17260"></path><path d="M364.11,217.05c0,.37-1.08.75-2.47.85s-2.53-.14-2.55-.51,1.07-.76,2.46-.86S364.08,216.67,364.11,217.05Z" style="fill:#fff"></path><path d="M362.41,170.25c-1.75,5.64-1.08,16.48,20.89,28.53L393,186.9s-13-16.61-24.09-20.1A5.23,5.23,0,0,0,362.41,170.25Z" style="fill:#F17260"></path><path d="M362.41,170.25c-1.75,5.64-1.08,16.48,20.89,28.53L393,186.9s-13-16.61-24.09-20.1A5.23,5.23,0,0,0,362.41,170.25Z" style="fill:#fff;opacity:0.5"></path></g><g id="freepik--character-1--inject-200"><path d="M111,160.71c-4-5.44-1.67-9.73-4.18-13.12s-13.45-8-19.54,0c0,0-6.77,3.7-4.63,15.33s-3,12.1,1.47,17.17c3.91,4.39,13.91-.92,21.13-1.89a3.65,3.65,0,0,0,1.79-.74,15.78,15.78,0,0,0,3.93-4.37,7.23,7.23,0,0,1-2.46,5C115.46,178.79,115,166.12,111,160.71Z" style="fill:#263238"></path><path d="M125.05,156.77a30.51,30.51,0,0,0-.57,6c0,7,2.15,9.32,4.8,9.32s4.8-2.32,4.8-9.32a29.77,29.77,0,0,0-.57-6Z" style="fill:#F17260"></path><path d="M125.05,156.77a30.51,30.51,0,0,0-.57,6c0,7,2.15,9.32,4.8,9.32s4.8-2.32,4.8-9.32a29.77,29.77,0,0,0-.57-6Z" style="fill:#fff;opacity:0.5"></path><path d="M132.82,156.77h-7.07c-.16,2.13-.24,5.12-.24,6.34,0,5.5,1.69,7.33,3.77,7.33s3.78-1.83,3.78-7.33C133.06,161.89,133,158.9,132.82,156.77Z" style="fill:#fff;opacity:0.5"></path><path d="M125.51,163.11c0,5.5,1.69,7.33,3.77,7.33s3.78-1.83,3.78-7.33c0-.22,0-.52,0-.85h-7.53C125.51,162.59,125.51,162.89,125.51,163.11Z" style="fill:#F17260"></path><polygon points="70.33 231.98 63.41 253.03 61.46 263.26 63.87 267.93 70.33 264.92 68.98 252.28 76.65 234.23 70.33 231.98" style="fill:#eec1bb"></polygon><path d="M136.89,183.92l-5.24-8.09a1.31,1.31,0,0,1-.21-.57l-.84-6.69a1.23,1.23,0,0,1,0-.43l1.15-5.93a1.36,1.36,0,0,1,2.08-.88l4.84,3.13a1.52,1.52,0,0,1,.54,1.95l-3.58,7.36,9.14,10.15Z" style="fill:#eec1bb"></path><path d="M145,176.47s11,20.76,1.35,24.15-27.08-4.52-27.08-4.52-4.06-9.4-1.12-15.42l20.08,9.11-6.1-7.45Z" style="fill:#F17260"></path><path d="M145,176.47s11,20.76,1.35,24.15-27.08-4.52-27.08-4.52-4.06-9.4-1.12-15.42l20.08,9.11-6.1-7.45Z" style="opacity:0.2"></path><path d="M119.34,185.79l-1.84,2.57,1.79,7.74a75.86,75.86,0,0,0,12.39,4.17A36.48,36.48,0,0,1,119.34,185.79Z" style="opacity:0.5"></path><path d="M106.43,321.32s5.1-5.94,19.82-4.66l-1.74-14.06-23.94,4.28Z" style="fill:#263238"></path><path d="M109.14,264.24l.23,133.35h-7s-9.25-56.41-5.64-66.68A339.52,339.52,0,0,1,85.9,282.29l-1.13-20.08,2-18.95,22.57-1.13Z" style="fill:#eec1bb"></path><path d="M121.78,242.13,154,397.59h-6.32s-22.56-55.28-20.53-67.92a187.23,187.23,0,0,1-22.79-55.5s-11.73-6.05-9-31.34Z" style="fill:#eec1bb"></path><path d="M118.17,181.59s4.56,15.89,5.11,21.36c.66,6.51-.9,26.17-.9,26.17l3,24.87,10.53,53.95C110,320,92,318.17,92,318.17c-17.14-59.27-3.91-83.94-3.91-83.94L77,187.9C95.45,178.13,118.17,181.59,118.17,181.59Z" style="fill:#F17260"></path><path d="M118.17,181.59s4.56,15.89,5.11,21.36c.66,6.51-.9,26.17-.9,26.17l3,24.87,10.53,53.95C110,320,92,318.17,92,318.17c-17.14-59.27-3.91-83.94-3.91-83.94L77,187.9C95.45,178.13,118.17,181.59,118.17,181.59Z" style="fill:#fff;opacity:0.5"></path><path d="M165.36,403.27A12.18,12.18,0,0,1,157.7,398l-4.18-5.74-.07-3.18s-2.45-1.86-4.5-.13a11.7,11.7,0,0,1-4.33,2.28l.93,3.52c-1.15,1.43.79,10.24,1.89,14l1.07-.16a42.29,42.29,0,0,0-.21-6.89c4.58,8.33,19.19,5,19.18,3.06C167.47,404,166.53,403.56,165.36,403.27Z" style="fill:#263238"></path><path d="M120.14,405.42a12.2,12.2,0,0,1-7-6.15l-3.46-6.19.3-3.16s-2.22-2.15-4.45-.66A11.69,11.69,0,0,1,101,391l.52,3.61c-1.31,1.28-.42,10.25.23,14.09l1.08,0a42,42,0,0,0,.6-6.86c3.56,8.81,18.47,7.19,18.68,5.3C122.15,406.41,121.27,405.85,120.14,405.42Z" style="fill:#263238"></path><path d="M91.6,166.85c1.66,4.67,3.89,13.35,1,17.06a56.21,56.21,0,0,0,13.47,5.47c4.7-5.2,1.49-7.66,1.49-7.66-5.56-.53-6-4.5-5.66-8.37Z" style="fill:#eec1bb"></path><path d="M102.22,178.06a12,12,0,0,1-.33-4.71l-5-3.17h-3L93,171.66A10.83,10.83,0,0,0,102.22,178.06Z" style="opacity:0.1"></path><path d="M86.56,161c3.1,7.53,4.24,10.78,9.47,13.4,7.87,3.94,16.43-1.51,15.65-9.81-.71-7.47-5.65-18.52-14.21-19A11.09,11.09,0,0,0,86.56,161Z" style="fill:#eec1bb"></path><path d="M104.5,158.5a17.54,17.54,0,0,0,3.6,3.23,2.84,2.84,0,0,1-2.08,1.19Z" style="fill:#d4827d"></path><path d="M97.54,157.07a.29.29,0,0,1-.16,0,.32.32,0,0,1-.17-.42h0a3.77,3.77,0,0,1,2.64-2.27.34.34,0,0,1,.37.27.32.32,0,0,1-.26.37,3.15,3.15,0,0,0-2.16,1.89A.32.32,0,0,1,97.54,157.07Z" style="fill:#263238"></path><path d="M108.67,153.22a.33.33,0,0,1-.17,0,3.15,3.15,0,0,0-2.85.2.33.33,0,0,1-.45-.07h0a.32.32,0,0,1,.09-.45,3.8,3.8,0,0,1,3.47-.27.31.31,0,0,1,.19.41.3.3,0,0,1-.27.21Z" style="fill:#263238"></path><path d="M99.73,159c.21.63.72,1,1.13.88s.57-.75.35-1.38-.72-1-1.13-.88S99.52,158.34,99.73,159Z" style="fill:#263238"></path><path d="M106.81,156.56c.21.62.71,1,1.12.88s.57-.76.35-1.39-.71-1-1.12-.88S106.59,155.93,106.81,156.56Z" style="fill:#263238"></path><path d="M107,155.27l1.36-1S108,155.76,107,155.27Z" style="fill:#263238"></path><path d="M99.92,157.68l1.35-.94S100.9,158.17,99.92,157.68Z" style="fill:#263238"></path><path d="M118.17,180.68s5,12.94,6,20.27-1.1,27.27-1.1,27.27l20.09,85.53L135,316.66c-9-58.66-25.64-136.57-25.64-136.57Z" style="fill:#F17260"></path><path d="M118.17,180.68s5,12.94,6,20.27-1.1,27.27-1.1,27.27l20.09,85.53L135,316.66c-9-58.66-25.64-136.57-25.64-136.57Z" style="opacity:0.2"></path><path d="M115.53,209.69l-1.11-29.26-5-.34S111.9,191.87,115.53,209.69Z" style="fill:#263238"></path><path d="M108,181a79.12,79.12,0,0,0-17.3,1.9c3.39,3.88,10.82,11.58,14.49,10.57C108.73,192.51,109.36,185.52,108,181Z" style="fill:#eec1bb"></path><path d="M119.23,232.69c-2,4.23-7.9,11.85-22.74,3.14a.75.75,0,0,1,.49-1.38c4.28.66,11.51.71,20.92-3.17A1,1,0,0,1,119.23,232.69Z" style="opacity:0.1"></path><path d="M77,187,70.48,223l-5.56,13.24L76.2,240.1S92,212.27,77,187Z" style="fill:#F17260"></path><path d="M77,187,70.48,223l-5.56,13.24L76.2,240.1S92,212.27,77,187Z" style="opacity:0.2"></path><path d="M82.38,200.91l-2-1.72s1.77,17.27.83,28.12A56.31,56.31,0,0,0,82.38,200.91Z" style="opacity:0.5"></path><path d="M90.74,182s6.89,39.15,2.16,71.19,7.67,72.65,7.67,72.65H92s-17.82-62.73-5-93.19L77,187Z" style="fill:#F17260"></path><path d="M90.74,182s6.89,39.15,2.16,71.19,7.67,72.65,7.67,72.65H92s-17.82-62.73-5-93.19L77,187Z" style="opacity:0.2"></path><path d="M85.67,183.84l8.2,25.34C92.77,193.52,90.74,182,90.74,182Z" style="fill:#263238"></path><path d="M89.63,167.22s3.91-3.84,2.45-10.57l.45-1.32a6.3,6.3,0,0,1,.51,6s5.36-6.22,1.62-10.53a4,4,0,0,1,2.54,4s5.49-3.76,1.53-6.16c0,0,3-.26,3.21,3.33,0,0,5.11.05,3.61-3s-10-7.82-16.79-1.2C88.76,147.82,78.68,155.7,89.63,167.22Z" style="fill:#263238"></path><path d="M86.82,167.73a5.94,5.94,0,0,0,3.85,2.41c2.06.32,2.85-1.57,2.08-3.39-.69-1.64-2.6-3.78-4.58-3.28a2.7,2.7,0,0,0-1.84,3.33A2.52,2.52,0,0,0,86.82,167.73Z" style="fill:#eec1bb"></path><path d="M107.76,165.46a37.76,37.76,0,0,0-6.53.2c.71,1.25,1.88,2.21,4.33,2S107.76,165.46,107.76,165.46Z" style="fill:#263238"></path><path d="M104.31,166.73a4.88,4.88,0,0,1,2.74.39,2.66,2.66,0,0,1-1.49.52,4.75,4.75,0,0,1-2.73-.4A2.69,2.69,0,0,1,104.31,166.73Z" style="fill:#ff5652"></path><path d="M107.54,165.44a.92.92,0,0,1-.67.71,27.67,27.67,0,0,1-4.27,0,1.36,1.36,0,0,1-1.15-.54A44.22,44.22,0,0,1,107.54,165.44Z" style="fill:#fff"></path></g></svg>